<?xml version="1.0" standalone="no"?>
<!DOCTYPE svg PUBLIC "-//W3C//DTD SVG 1.1//EN" "http://www.w3.org/Graphics/SVG/1.1/DTD/svg11.dtd" >
<svg xmlns="http://www.w3.org/2000/svg">
<metadata>Generated by IcoMoon</metadata>
<defs>
<font id="icomoon" horiz-adv-x="1024">
<font-face units-per-em="1024" ascent="960" descent="-64" />
<missing-glyph horiz-adv-x="1024" />
<glyph unicode="&#x20;" horiz-adv-x="512" d="" />
<glyph unicode="&#xe900;" glyph-name="phone" d="M704 298.667c-64-64-64-128-128-128s-128 64-192 128-128 128-128 192 64 64 128 128-128 256-192 256-192-192-192-192c0-128 131.5-387.5 256-512s384-256 512-256c0 0 192 128 192 192s-192 256-256 192z" />
<glyph unicode="&#xe901;" glyph-name="youtube" d="M511.996 810.667c0 0 0.004 0 0.004-42.667v-42.667l-3.221-0.005c-2.133-0.005-5.286-0.014-9.335-0.033-8.094-0.038-19.763-0.114-34.001-0.266-28.489-0.305-67.192-0.914-108.121-2.13-40.997-1.218-83.887-3.036-120.857-5.732-37.893-2.764-66.048-6.238-80.076-9.932-12.745-3.661-24.31-10.596-33.545-20.116-9.009-9.287-15.49-20.716-18.839-33.199-12.78-71.408-19.031-143.831-18.672-216.378l0.003-0.478c-0.457-72.841 5.745-145.57 18.536-217.276 3.696-11.849 10.243-22.618 19.076-31.36 9.255-9.161 20.709-15.787 33.261-19.243 13.966-3.712 42.2-7.202 80.256-9.98 36.97-2.697 79.86-4.514 120.857-5.73 40.929-1.216 79.633-1.826 108.121-2.133 14.238-0.149 25.907-0.226 34.001-0.265 4.049-0.021 7.202-0.030 9.335-0.034h6.443c2.133 0.004 5.286 0.013 9.335 0.034 8.098 0.038 19.763 0.115 34.001 0.265 28.493 0.307 67.191 0.917 108.122 2.133 40.998 1.216 83.887 3.034 120.858 5.73 37.892 2.765 66.048 6.238 80.077 9.933 12.745 3.661 24.307 10.594 33.545 20.117 9.007 9.284 15.488 20.715 18.837 33.195 12.681 70.869 18.931 142.737 18.671 214.729v0.422c0.457 73.092-5.79 146.074-18.671 218.024-3.349 12.483-9.83 23.912-18.837 33.199-9.131 9.411-20.535 16.296-33.109 19.989-14.502 3.412-42.765 6.557-80.243 9.053-37.047 2.467-79.996 4.128-121.015 5.242-40.96 1.111-79.689 1.668-108.194 1.946-14.246 0.139-25.92 0.209-34.022 0.243l-12.574 0.035v42.667c0 42.667-0.004 42.667-0.004 42.667l3.405-0.004c2.197-0.005 5.419-0.014 9.54-0.031 8.235-0.035 20.070-0.106 34.487-0.247 28.83-0.282 68.075-0.845 109.675-1.974 41.54-1.127 85.739-2.825 124.373-5.399 37.53-2.499 73.148-6.006 95.578-11.483 0.503-0.122 0.998-0.253 1.493-0.394 27.311-7.727 52.1-22.523 71.863-42.896 19.759-20.372 33.796-45.6 40.687-73.132 0.23-0.922 0.431-1.851 0.597-2.786 13.99-77.556 20.787-156.238 20.305-235.043 0.269-77.628-6.528-155.119-20.305-231.514-0.166-0.939-0.367-1.869-0.597-2.79-6.891-27.533-20.928-52.762-40.687-73.135-19.763-20.369-44.553-35.166-71.863-42.893l-0.589-0.162c-22.771-6.093-58.697-9.95-96.213-12.685-38.711-2.825-82.97-4.685-124.531-5.922-41.63-1.237-80.9-1.852-109.743-2.163-14.43-0.154-26.27-0.23-34.513-0.269-4.122-0.017-7.347-0.030-9.549-0.034l-3.388-0.004-3.43 0.004c-2.202 0.004-5.427 0.017-9.549 0.034-8.243 0.038-20.083 0.115-34.513 0.269-28.838 0.311-68.112 0.926-109.743 2.163-41.562 1.237-85.82 3.098-124.529 5.922-37.517 2.735-73.444 6.592-96.213 12.685l-0.237 0.060c-26.755 7.322-51.17 21.419-70.885 40.934-19.715 19.511-34.065 43.776-41.663 70.455-0.386 1.353-0.704 2.726-0.954 4.113-13.988 77.547-20.785 156.22-20.305 235.017-0.372 78.205 6.425 156.282 20.305 233.249 0.169 0.936 0.369 1.865 0.6 2.788 6.891 27.533 20.927 52.76 40.688 73.132s44.55 35.17 71.86 42.896l0.592 0.163c22.769 6.089 58.696 9.946 96.213 12.682 38.71 2.823 82.967 4.686 124.529 5.921 41.631 1.237 80.905 1.854 109.743 2.163 14.43 0.154 26.27 0.231 34.513 0.27 4.122 0.019 7.347 0.029 9.549 0.034l3.405 0.005zM394.546 613.735c13.133 7.64 29.338 7.719 42.544 0.208l245.333-139.519c13.338-7.586 21.577-21.747 21.577-37.090s-8.239-29.504-21.577-37.086l-245.333-139.52c-13.205-7.514-29.411-7.433-42.544 0.205-13.133 7.642-21.213 21.687-21.213 36.881v279.041c0 15.194 8.080 29.241 21.213 36.881zM458.667 503.505v-132.343l116.356 66.172-116.356 66.172z" />
<glyph unicode="&#xe902;" glyph-name="close" d="M798.17 712.837c16.661-16.663 16.661-43.677 0-60.34l-512-512c-16.663-16.661-43.677-16.661-60.34 0s-16.662 43.678 0 60.339l512 512c16.661 16.662 43.678 16.662 60.339 0zM225.83 712.837c16.663 16.662 43.677 16.662 60.34 0l512-512c16.661-16.661 16.661-43.678 0-60.339s-43.678-16.661-60.339 0l-512 512c-16.662 16.663-16.662 43.677 0 60.34z" />
<glyph unicode="&#xe903;" glyph-name="cosmetic" d="M57.241 825.642l63.825-734.044v-63.331c0.056-44.163 35.837-79.944 79.999-80h160c44.163 0.056 79.944 35.837 80 80v63.331l63.82 734.044 15.706 62.738c1.194 4.781 0.125 9.85-2.912 13.731-3.031 3.881-7.681 6.156-12.613 6.156h-447.999c-4.931 0-9.575-2.275-12.619-6.156-3.031-3.881-4.1-8.95-2.906-13.731l15.7-62.738zM425.709 284.267h-289.281l-8.337 96h305.949l-8.332-96zM422.927 252.267l-12.531-144h-258.656l-12.531 144h283.718zM225.065 76.267h112v-16c0-8.837-7.162-16-16-16h-80c-8.837 0-16 7.163-16 16v16zM409.065 28.267c0-26.506-21.494-48-48-48h-160c-26.506 0-48 21.494-48 48v48h40v-16c0-26.506 21.494-48 48-48h80c26.506 0 48 21.494 48 48v16h40v-48zM436.822 412.267h-311.512l-34.788 400h381.094l-34.794-400zM484.566 876.267l-8-32h-391.006l-8 32h407.006zM649.068-51.733h224.001c26.506 0 48 21.494 48 48v608c-0.038 31.775-18.881 60.506-48 73.219v54.781c0 8.837-7.163 16-16.001 16h-48v64h160.001c6.468 0 12.306 3.9 14.78 9.875 2.476 5.975 1.101 12.863-3.468 17.438l-32.001 32c-2.444 2.444-5.618 4.031-9.037 4.531l-224 32c-0.756 0.1-1.519 0.156-2.276 0.156h-64c-8.837 0-16-7.162-16-16v-64c0-8.838 7.163-16 16-16h64v-64h-48c-8.837 0-16-7.163-16-16v-54.781c-29.119-12.713-47.963-41.444-48-73.219v-608c0-26.506 21.494-48 48-48zM889.069 524.267h-256.001v32h256.001v-32zM889.069 172.267h-256.001v320h256.001v-320zM873.069-19.733h-224.001c-8.837 0-16 7.163-16 16v144h256.001v-144c0-8.837-7.163-16-16-16zM665.068 876.267h46.87l217.594-31.087 0.913-0.913h-265.376v32zM745.068 812.267h32v-64h-32v64zM681.068 716.267h160v-32h-160v32zM681.068 652.267h160c26.508 0 48.001-21.494 48.001-48v-16h-256.001v16c0 26.506 21.494 48 48 48zM185.068 316.267h192c8.837 0 16 7.163 16 16s-7.163 16-16 16h-192c-8.837 0-16-7.163-16-16s7.163-16 16-16zM761.068 44.267h-64v48c0 8.837-7.163 16-16 16s-16-7.163-16-16v-64c0-8.837 7.163-16 16-16h80c8.837 0 16 7.163 16 16s-7.163 16-16 16zM841.068 44.267h-16c-8.837 0-16-7.163-16-16s7.163-16 16-16h16c8.837 0 16 7.163 16 16s-7.163 16-16 16zM356.010 141.080c8.388-2.781 17.431 1.75 20.219 10.131l16 48c2.801 8.394-1.737 17.463-10.138 20.262-8.399 2.788-17.462-1.75-20.256-10.149l-16-48c-1.338-4.032-1.019-8.431 0.887-12.225 1.907-3.8 5.251-6.682 9.288-8.019z" />
<glyph unicode="&#xe904;" glyph-name="facebook" d="M458.982 821.020c48.009 48.009 113.122 74.981 181.018 74.981h128c23.565 0 42.667-19.103 42.667-42.667v-170.667c0-23.564-19.102-42.667-42.667-42.667h-128v-85.333h128c13.137 0 25.545-6.053 33.63-16.409s10.948-23.859 7.761-36.604l-42.667-170.667c-4.745-18.995-21.811-32.32-41.391-32.32h-85.333v-298.667c0-23.565-19.102-42.667-42.667-42.667h-170.667c-23.564 0-42.667 19.102-42.667 42.667v298.667h-85.333c-23.564 0-42.667 19.102-42.667 42.667v170.667c0 23.564 19.103 42.667 42.667 42.667h85.333v85.333c0 67.895 26.971 133.010 74.982 181.019zM640 810.667c-45.265 0-88.674-17.981-120.678-49.987-32.009-32.006-49.988-75.416-49.988-120.68v-128c0-23.565-19.102-42.667-42.667-42.667h-85.333v-85.333h85.333c23.565 0 42.667-19.102 42.667-42.667v-298.667h85.333v298.667c0 23.565 19.102 42.667 42.667 42.667h94.686l21.333 85.333h-116.019c-23.565 0-42.667 19.102-42.667 42.667v128c0 22.632 8.99 44.337 24.994 60.34s37.709 24.994 60.339 24.994h85.333v85.333h-85.333z" />
<glyph unicode="&#xe905;" glyph-name="instagram" d="M298.666 810.667c-94.257 0-170.667-76.41-170.667-170.667v-426.667c0-94.255 76.41-170.667 170.667-170.667h426.667c94.255 0 170.667 76.412 170.667 170.667v426.667c0 94.257-76.412 170.667-170.667 170.667h-426.667zM42.666 640c0 141.385 114.615 256 256 256h426.667c141.385 0 256-114.615 256-256v-426.667c0-141.385-114.615-256-256-256h-426.667c-141.385 0-256 114.615-256 256v426.667zM532.621 555.126c-26.633 3.949-53.828-0.6-77.726-13s-43.279-32.020-55.383-56.067c-12.105-24.051-16.317-51.302-12.040-77.884s16.827-51.136 35.864-70.174c19.036-19.038 43.595-31.586 70.176-35.866 26.577-4.275 53.833-0.064 77.879 12.041 24.051 12.105 43.669 31.484 56.068 55.381 12.403 23.898 16.951 51.098 13.001 77.73-4.028 27.166-16.687 52.314-36.105 71.732s-44.57 32.077-71.735 36.106zM415.591 617.87c39.829 20.667 85.162 28.248 129.548 21.667 45.274-6.714 87.189-27.811 119.556-60.177s53.461-74.28 60.177-119.558c6.579-44.386-0.998-89.715-21.666-129.545s-53.367-72.128-93.449-92.305c-40.081-20.173-85.504-27.196-129.805-20.066s-85.228 28.045-116.957 59.776c-31.729 31.727-52.646 72.653-59.774 116.958-7.129 44.301-0.107 89.724 20.067 129.803 20.174 40.081 52.472 72.78 92.302 93.447zM704 661.334c0 23.564 19.102 42.667 42.667 42.667h0.427c23.565 0 42.667-19.103 42.667-42.667s-19.102-42.667-42.667-42.667h-0.427c-23.565 0-42.667 19.103-42.667 42.667z" />
<glyph unicode="&#xe906;" glyph-name="menu" d="M85.333 426.667c0 23.565 19.103 42.667 42.667 42.667h768c23.565 0 42.667-19.102 42.667-42.667s-19.102-42.667-42.667-42.667h-768c-23.564 0-42.667 19.102-42.667 42.667zM85.333 682.667c0 23.564 19.103 42.667 42.667 42.667h768c23.565 0 42.667-19.103 42.667-42.667s-19.102-42.667-42.667-42.667h-768c-23.564 0-42.667 19.103-42.667 42.667zM85.333 170.667c0 23.565 19.103 42.667 42.667 42.667h768c23.565 0 42.667-19.102 42.667-42.667s-19.102-42.667-42.667-42.667h-768c-23.564 0-42.667 19.102-42.667 42.667z" />
<glyph unicode="&#xe907;" glyph-name="trim" d="M512 362.81c19.412-0.005 36.913 11.688 44.351 29.626 7.43 17.932 3.331 38.575-10.4 52.306-19 18.112-48.876 18.112-67.876 0-13.711-13.719-17.824-34.363-10.394-52.293 7.419-17.938 24.913-29.632 44.319-29.638zM500.687 422.123c6.25 6.244 16.375 6.244 22.625 0 6.244-6.25 6.244-16.381 0-22.625-6.324-6.056-16.3-6.056-22.625 0-6.244 6.244-6.244 16.375 0 22.625zM704 586.81c4.243 0 8.312 1.688 11.313 4.687l144 144.001c6.063 6.275 5.975 16.256-0.193 22.431-6.175 6.168-16.15 6.257-22.432 0.193l-144-144c-4.568-4.581-5.944-11.462-3.469-17.437s8.312-9.875 14.781-9.875zM624 506.81c4.243 0 8.312 1.688 11.313 4.689l32 32c6.062 6.275 5.975 16.256-0.195 22.431-6.175 6.168-16.15 6.257-22.431 0.193l-32-32c-4.568-4.581-5.944-11.462-3.469-17.437s8.312-9.875 14.781-9.875zM208 138.81c-35.343 0-64-28.655-64-64 0-35.35 28.657-64 64-64s64 28.65 64 64c0 35.345-28.657 64-64 64zM208 42.81c-17.676 0-32 14.319-32 32 0 17.669 14.324 32 32 32s32-14.331 32-32c0-17.681-14.324-32-32-32zM816.594 10.81c35.343 0 64 28.65 64 64 0 35.345-28.657 64-64 64-35.35 0-64-28.655-64-64 0-35.35 28.65-64 64-64zM816.594 106.81c17.669 0 32-14.331 32-32 0-17.681-14.331-32-32-32s-32 14.319-32 32c0 17.669 14.331 32 32 32zM976 346.81c-35.343 0-64 28.65-64 64 0 8.838-7.163 16-16 16s-16-7.162-16-16c0-35.35-28.657-64-64-64-8.837 0-16-7.162-16-16s7.163-16 16-16c35.343 0 64-28.655 64-64 0-8.837 7.163-16 16-16s16 7.163 16 16c0 35.345 28.657 64 64 64 8.837 0 16 7.163 16 16s-7.163 16-16 16zM896 303.76c-7.124 10.732-16.319 19.926-27.037 27.050 10.719 7.119 19.913 16.312 27.037 27.037 7.124-10.725 16.319-19.918 27.037-27.037-10.719-7.124-19.913-16.319-27.037-27.050zM48 506.81c35.344 0 64-28.655 64-64 0-8.837 7.162-16 16-16s16 7.163 16 16c0 35.345 28.657 64 64 64 8.837 0 16 7.163 16 16 0 8.838-7.163 16-16 16-35.343 0-64 28.65-64 64 0 8.838-7.163 16-16 16s-16-7.162-16-16c0-35.35-28.656-64-64-64-8.838 0-16-7.162-16-16 0-8.837 7.162-16 16-16zM128 549.848c7.124-10.725 16.319-19.918 27.037-27.037-10.719-7.124-19.913-16.319-27.037-27.050-7.125 10.732-16.319 19.926-27.037 27.050 10.719 7.119 19.912 16.312 27.037 27.037zM419.2 356.599l-163.2-163.169c-15.237 6.225-31.538 9.407-48 9.381-70.693 0-128-57.312-128-128 0-70.693 57.307-128 128-128s128 57.307 128 128c-0.013 7.651-0.737 15.287-2.138 22.812l178.444 174.4 178.432-174.4c-1.413-7.525-2.125-15.162-2.144-22.812 0-70.693 57.306-128 128-128 70.687 0 128 57.307 128 128 0 70.688-57.313 128-128 128-16.462 0.031-32.769-3.156-48-9.381l-163.007 162.975 302.907 348.407c70.5 88.124 1.518 193.818 0.818 194.874-2.6 3.9-6.78 6.463-11.437 7.006-4.676 0.537-9.344-0.975-12.806-4.156l-372.625-346.131-372.669 346.131c-3.456 3.181-8.124 4.694-12.8 4.156-4.656-0.544-8.838-3.106-11.437-7.006-0.713-1.056-69.663-106.75 1.244-195.375l302.419-347.712zM305.132 114.279c-4.093-4.006-5.732-9.893-4.306-15.438 10.287-39.756-5.857-81.644-40.151-104.218-34.3-22.582-79.15-20.845-111.606 4.312-32.45 25.156-45.313 68.168-31.994 107.005 13.325 38.844 49.863 64.913 90.925 64.869 15.343 0.013 30.463-3.681 44.063-10.788 6.194-3.206 13.743-2.031 18.675 2.894l169.418 169.407c9.475-8.925 20.419-16.156 32.356-21.357l16.895-16.525-184.275-180.163zM772.55 160.023c13.587 7.107 28.7 10.801 44.044 10.788 41.381 0.25 78.337-25.893 91.868-65.006 13.532-39.119 0.631-82.5-32.074-107.875-32.7-25.37-77.925-27.089-112.457-4.262-34.524 22.825-50.675 65.112-40.143 105.143 1.437 5.537-0.2 11.432-4.3 15.438l-194.038 189.693c22.038 3.38 42.5 13.431 58.643 28.8l169.769-169.763c4.913-4.956 12.475-6.157 18.688-2.957zM891.807 865.073c13.475-28.656 32.956-88.7-7.869-139.769l-319.25-367.181c-28.987-29.219-76.163-29.407-105.375-0.425-29.212 28.987-29.4 76.169-0.412 105.375l432.906 402zM132.993 865.21l355.939-330.582-52.244-48.506c-17.624-17.088-28.913-39.657-32-64l-263.313 302.688c-41.556 51.931-22 111.774-8.381 140.399z" />
<glyph unicode="&#xe908;" glyph-name="whatsapp" d="M708.267 341.334c-8.533 4.267-64 29.867-72.533 34.133s-17.067 4.267-25.6-4.267c-8.533-8.533-25.6-34.133-34.133-42.667-4.267-8.533-12.8-8.533-21.333-4.267-29.867 12.8-59.733 29.867-85.333 51.2-21.333 21.333-42.667 46.933-59.733 72.533-4.267 8.533 0 17.067 4.267 21.333s8.533 12.8 17.067 17.067c4.267 4.267 8.533 12.8 8.533 17.067 4.267 4.267 4.267 12.801 0 17.068s-25.6 55.467-34.133 76.8c-4.267 29.867-12.8 29.867-21.333 29.867-4.267 0-12.8 0-21.333 0s-21.333-8.533-25.6-12.8c-25.6-25.6-38.4-55.467-38.4-89.6 4.267-38.401 17.067-76.801 42.667-110.934 46.933-68.267 106.667-123.733 179.2-157.867 21.333-8.533 38.4-17.067 59.733-21.333 21.333-8.533 42.667-8.533 68.267-4.267 29.867 4.267 55.467 25.6 72.533 51.2 8.533 17.067 8.533 34.133 4.267 51.2 0 0-8.533 4.267-17.067 8.533zM814.933 729.601c-166.4 166.4-435.2 166.4-601.6 0-136.533-136.533-162.133-345.601-68.267-512.001l-59.733-217.6 226.133 59.733c64-34.133 132.267-51.2 200.533-51.2 234.667 0 422.4 187.733 422.4 422.4 4.267 110.935-42.667 217.601-119.467 298.668zM699.733 132.267c-55.467-34.133-119.467-55.467-187.733-55.467-64 0-123.733 17.067-179.2 46.933l-12.8 8.533-132.267-34.133 34.133 128-8.533 12.8c-102.4 170.667-51.2 384.001 115.2 490.668s379.733 51.2 482.133-110.933c102.4-166.401 55.467-384.001-110.933-486.401z" />
<glyph unicode="&#xe909;" glyph-name="woman-hair" d="M240.009 634.657c35.343 0 63.999 28.655 63.999 63.999s-28.655 63.999-63.999 63.999c-35.348 0-63.999-28.655-63.999-63.999s28.65-63.999 63.999-63.999zM240.009 730.655c17.669 0 32-14.331 32-32 0-17.674-14.331-32-32-32-17.674 0-31.999 14.326-31.999 32 0 17.669 14.324 32 31.999 32zM224.009 474.661c0 35.343-28.657 63.999-64 63.999-35.349 0-63.999-28.655-63.999-63.999s28.65-63.999 63.999-63.999c35.343 0 64 28.655 64 63.999zM128.010 474.661c0 17.668 14.324 31.999 31.999 31.999 17.669 0 32-14.331 32-31.999 0-17.676-14.331-32-32-32-17.674 0-31.999 14.324-31.999 32zM192.009 314.664c-35.348 0-63.999-28.657-63.999-64s28.65-63.999 63.999-63.999c35.343 0 64 28.655 64 63.999s-28.657 64-64 64zM192.009 218.666c-17.674 0-31.999 14.324-31.999 31.999 0 17.669 14.324 32 31.999 32 17.669 0 32-14.331 32-32 0-17.674-14.331-31.999-32-31.999zM783.999 634.657c35.343 0 63.999 28.655 63.999 63.999s-28.655 63.999-63.999 63.999c-35.35 0-63.999-28.655-63.999-63.999s28.649-63.999 63.999-63.999zM783.999 730.655c17.669 0 32-14.331 32-32 0-17.674-14.331-32-32-32-17.674 0-31.999 14.326-31.999 32 0 17.669 14.324 32 31.999 32zM800 474.661c0-35.343 28.649-63.999 63.999-63.999 35.343 0 63.999 28.655 63.999 63.999s-28.655 63.999-63.999 63.999c-35.35 0-63.999-28.655-63.999-63.999zM895.999 474.661c0-17.676-14.331-32-32-32-17.674 0-31.999 14.324-31.999 32 0 17.668 14.324 31.999 31.999 31.999 17.669 0 32-14.331 32-31.999zM906.917 354.232c57.937 20.563 93.029 79.45 83.542 140.192l-122.323 108.023c0 0 58.531 125.023 13.875 178.348-44.662 53.33-123.754 61.174-178.010 17.65v92.21c0 8.831-7.163 16-16 16h-351.994c-8.838 0-16-7.169-16-16v-92.449c-54.186 43.649-133.341 35.906-178.047-17.405-44.706-53.318-38.531-132.604 13.9-178.354-61.443-1.906-122.317-108.023-122.317-108.023s25.599-119.629 83.536-140.192c-46.73-33.774-65.093-94.642-44.818-148.616 20.262-53.974 74.149-87.717 131.561-82.38 57.405 5.336 104.148 48.43 114.117 105.216 18.143-25.286 40.486-47.281 66.067-65.024v-88.76h-143.997c-44.163-0.056-79.955-35.837-79.999-79.999v-32c0-8.837 7.162-16 16-16 262.428 0 409.56 0 671.988 0 8.837 0 16 7.163 16 16v32c-0.056 44.161-35.843 79.942-79.999 79.999h-143.997v88.76c25.568 17.743 47.918 39.738 66.061 65.024 9.869-56.924 56.655-100.179 114.18-105.567 57.518-5.394 111.529 28.419 131.791 82.531 20.275 54.099 1.788 115.072-45.117 148.815zM959.997 474.662c0-53.018-42.988-95.999-95.999-95.999-53.024 0-95.999 42.981-95.999 95.999 0 53.011 42.975 95.999 95.999 95.999 52.993-0.056 95.942-43 95.999-95.999zM751.069 534.786c-5.125 16.124-11.469 31.825-18.975 46.973 15.062-6.693 31.281-10.4 47.756-10.893-11.688-10.194-21.444-22.419-28.781-36.081zM784 794.657c50.981 0.061 93.13-39.75 95.96-90.668 2.831-50.912-34.624-95.155-85.311-100.755-50.68-5.594-96.899 29.407-105.242 79.712 8.212 0.649 14.543 7.474 14.593 15.712v52.792c17.619 27.031 47.731 43.287 79.999 43.206zM672.001 714.658h-79.999v159.997h79.999v-159.997zM560.004 874.655v-159.997h-95.999v159.997h95.999zM272.927 534.786c-7.343 13.668-17.1 25.887-28.794 36.081 16.475 0.499 32.694 4.2 47.756 10.893-7.5-15.155-13.837-30.862-18.962-46.973zM352.006 874.655h79.999v-159.997h-79.999v159.997zM144.010 698.658c-0.069 42.392 27.712 79.799 68.317 91.986 40.612 12.18 84.399-3.757 107.68-39.194v-52.792c0.037-8.238 6.381-15.063 14.587-15.712-8.468-48.987-52.937-83.393-102.479-79.305-49.537 4.081-87.767 45.306-88.105 95.017zM64.012 474.662c0 53.011 42.974 95.999 95.999 95.999 53.011 0 95.999-42.988 95.999-95.999 0-53.018-42.988-95.999-95.999-95.999-52.999 0.050-95.955 42.999-95.999 95.999zM192.009 154.667c-53.024 0-95.998 42.98-95.998 95.999 0 53.011 42.974 95.997 95.998 95.997 53.012 0 95.999-42.986 95.999-95.997-0.056-53-43.005-95.949-95.999-95.999zM234.927 371.088c8.431 6.106 16.106 13.199 22.838 21.125 1.143-11.875 2.849-23.562 5.13-35.062-8.705 5.78-18.106 10.461-27.968 13.937zM615.421 185.491c-4.625-2.936-7.425-8.037-7.419-13.512 0 0 0-104.474 0-113.311s16-16 16-16h159.997c26.506 0 47.999-21.492 47.999-47.999v-16c-249.932 0-639.99 0-639.99 0v16c0 26.506 21.481 47.999 48 47.999h159.997c8.837 0 16 7.163 16 16v113.373c0 5.481-2.801 10.58-7.432 13.518-74.368 47.2-120.567 139.579-120.567 241.102-1.612 82.012 31.025 160.998 90.043 217.966-5.45-35.094-8.813-70.481-10.044-105.967 0-8.837 7.163-16 16-16s16 7.163 16 16c2.162 44.443 6.975 88.723 14.4 132.604 7.124 4.243 14.487 8.050 22.074 11.393h8.838c-7.538-47.668-11.994-95.767-13.313-143.997 0-8.837 7.163-16 16-16s16 7.163 16 16c1.469 48.237 6.038 96.342 13.693 143.997h18.307v-143.997c0-8.837 7.162-16 15.999-16s16 7.163 16 16v143.997h18.307c7.643-47.656 12.219-95.761 13.693-143.997 0-8.837 16-16 16-16s15.999 7.163 15.999 16c-1.331 48.23-5.774 96.329-13.312 143.997h8.813c7.599-3.343 14.994-7.15 22.131-11.393 7.412-43.881 12.212-88.161 14.368-132.604 0-8.837 7.163-16 16-16s16 7.163 16 16c-1.244 35.487-4.594 70.874-10.051 105.967 59.025-56.968 91.649-135.954 90.049-217.966 0-101.523-46.212-193.902-120.58-241.102v-0.069zM766.231 392.213c6.744-7.926 14.406-15.020 22.838-21.125-9.856-3.475-19.25-8.156-27.968-13.937 2.275 11.493 3.987 23.181 5.13 35.062zM831.999 154.667c-53.024 0-95.997 42.98-95.997 95.999 0 53.011 42.973 95.997 95.997 95.997 53.012 0 95.999-42.986 95.999-95.997-0.056-53-43.005-95.949-95.999-95.999zM831.999 314.664c-35.35 0-63.999-28.657-63.999-64s28.649-63.999 63.999-63.999c35.343 0 63.999 28.655 63.999 63.999s-28.655 64-63.999 64zM831.999 218.666c-17.674 0-31.999 14.324-31.999 31.999 0 17.669 14.324 32 31.999 32 17.669 0 32-14.331 32-32 0-17.674-14.331-31.999-32-31.999zM475.315 453.972c-6.25 6.237-16.38 6.237-22.624 0-11.519-12.494-27.725-19.606-44.712-19.606-16.995 0-33.201 7.112-44.718 19.606-6.287 6.049-16.262 5.943-22.432-0.244-6.156-6.186-6.218-16.161-0.137-22.431 18.474-18.312 43.212-28.931 69.211-29.711 24.95 0.525 48.6 11.268 65.412 29.711 3.007 3 4.7 7.081 4.7 11.338 0 4.25-1.693 8.337-4.7 11.337zM683.315 453.972c-6.25 6.237-16.38 6.237-22.624 0-11.519-12.494-27.725-19.606-44.712-19.606-16.995 0-33.201 7.112-44.718 19.606-6.287 6.049-16.262 5.943-22.432-0.244-6.156-6.186-6.218-16.161-0.137-22.431 18.474-18.312 43.212-28.931 69.211-29.711 24.95 0.525 48.6 11.268 65.412 29.711 3.007 3 4.7 7.081 4.7 11.338 0 4.25-1.693 8.337-4.7 11.337zM564.691 309.973c-50.806-50.78-99.905-5.375-105.405 0-6.287 6.049-16.274 5.949-22.431-0.232-6.162-6.175-6.244-16.161-0.163-22.424 20.663-20.499 48.343-32.393 77.436-33.268 27.918 0.6 54.374 12.626 73.187 33.268 6.062 6.281 5.975 16.256-0.193 22.424-6.175 6.175-16.156 6.263-22.431 0.201v0.031z" />
<glyph unicode="&#xe90a;" glyph-name="youtube1" d="M511.996 810.667c0 0 0.004 0 0.004-42.667v-42.667l-3.221-0.005c-2.133-0.005-5.286-0.014-9.335-0.033-8.094-0.038-19.763-0.114-34.001-0.266-28.489-0.305-67.192-0.914-108.121-2.13-40.997-1.218-83.887-3.036-120.857-5.732-37.893-2.764-66.048-6.238-80.076-9.932-12.745-3.661-24.31-10.596-33.545-20.116-9.009-9.287-15.49-20.716-18.839-33.199-12.78-71.408-19.031-143.831-18.672-216.378l0.003-0.478c-0.457-72.841 5.745-145.57 18.536-217.276 3.696-11.849 10.243-22.618 19.076-31.36 9.255-9.161 20.709-15.787 33.261-19.243 13.966-3.712 42.2-7.202 80.256-9.98 36.97-2.697 79.86-4.514 120.857-5.73 40.929-1.216 79.633-1.826 108.121-2.133 14.238-0.149 25.907-0.226 34.001-0.265 4.049-0.021 7.202-0.030 9.335-0.034h6.443c2.133 0.004 5.286 0.013 9.335 0.034 8.098 0.038 19.763 0.115 34.001 0.265 28.493 0.307 67.191 0.917 108.122 2.133 40.998 1.216 83.887 3.034 120.858 5.73 37.892 2.765 66.048 6.238 80.077 9.933 12.745 3.661 24.307 10.594 33.545 20.117 9.007 9.284 15.488 20.715 18.837 33.195 12.681 70.869 18.931 142.737 18.671 214.729v0.422c0.457 73.092-5.79 146.074-18.671 218.024-3.349 12.483-9.83 23.912-18.837 33.199-9.131 9.411-20.535 16.296-33.109 19.989-14.502 3.412-42.765 6.557-80.243 9.053-37.047 2.467-79.996 4.128-121.015 5.242-40.96 1.111-79.689 1.668-108.194 1.946-14.246 0.139-25.92 0.209-34.022 0.243l-12.574 0.035v42.667c0 42.667-0.004 42.667-0.004 42.667l3.405-0.004c2.197-0.005 5.419-0.014 9.54-0.031 8.235-0.035 20.070-0.106 34.487-0.247 28.83-0.282 68.075-0.845 109.675-1.974 41.54-1.127 85.739-2.825 124.373-5.399 37.53-2.499 73.148-6.006 95.578-11.483 0.503-0.122 0.998-0.253 1.493-0.394 27.311-7.727 52.1-22.523 71.863-42.896 19.759-20.372 33.796-45.6 40.687-73.132 0.23-0.922 0.431-1.851 0.597-2.786 13.99-77.556 20.787-156.238 20.305-235.043 0.269-77.628-6.528-155.119-20.305-231.514-0.166-0.939-0.367-1.869-0.597-2.79-6.891-27.533-20.928-52.762-40.687-73.135-19.763-20.369-44.553-35.166-71.863-42.893l-0.589-0.162c-22.771-6.093-58.697-9.95-96.213-12.685-38.711-2.825-82.97-4.685-124.531-5.922-41.63-1.237-80.9-1.852-109.743-2.163-14.43-0.154-26.27-0.23-34.513-0.269-4.122-0.017-7.347-0.030-9.549-0.034l-3.388-0.004-3.43 0.004c-2.202 0.004-5.427 0.017-9.549 0.034-8.243 0.038-20.083 0.115-34.513 0.269-28.838 0.311-68.112 0.926-109.743 2.163-41.562 1.237-85.82 3.098-124.529 5.922-37.517 2.735-73.444 6.592-96.213 12.685l-0.237 0.060c-26.755 7.322-51.17 21.419-70.885 40.934-19.715 19.511-34.065 43.776-41.663 70.455-0.386 1.353-0.704 2.726-0.954 4.113-13.988 77.547-20.785 156.22-20.305 235.017-0.372 78.205 6.425 156.282 20.305 233.249 0.169 0.936 0.369 1.865 0.6 2.788 6.891 27.533 20.927 52.76 40.688 73.132s44.55 35.17 71.86 42.896l0.592 0.163c22.769 6.089 58.696 9.946 96.213 12.682 38.71 2.823 82.967 4.686 124.529 5.921 41.631 1.237 80.905 1.854 109.743 2.163 14.43 0.154 26.27 0.231 34.513 0.27 4.122 0.019 7.347 0.029 9.549 0.034l3.405 0.005zM394.546 613.735c13.133 7.64 29.338 7.719 42.544 0.208l245.333-139.519c13.338-7.586 21.577-21.747 21.577-37.090s-8.239-29.504-21.577-37.086l-245.333-139.52c-13.205-7.514-29.411-7.433-42.544 0.205-13.133 7.642-21.213 21.687-21.213 36.881v279.041c0 15.194 8.080 29.241 21.213 36.881zM458.667 503.505v-132.343l116.356 66.172-116.356 66.172z" />
<glyph unicode="&#xe90b;" glyph-name="mail" d="M170.667 725.334c-23.369 0-42.667-19.297-42.667-42.667v-512c0-23.369 19.297-42.667 42.667-42.667h682.667c23.369 0 42.667 19.298 42.667 42.667v512c0 23.369-19.298 42.667-42.667 42.667h-682.667zM42.667 682.667c0 70.497 57.503 128 128 128h682.667c70.498 0 128-57.503 128-128v-512c0-70.498-57.502-128-128-128h-682.667c-70.497 0-128 57.502-128 128v512zM50.38 707.134c13.513 19.305 40.117 23.999 59.421 10.486l402.199-281.541 402.197 281.541c19.307 13.513 45.909 8.818 59.422-10.486s8.819-45.908-10.483-59.422l-426.667-298.668c-14.694-10.283-34.244-10.283-48.939 0l-426.665 298.668c-19.305 13.513-23.999 40.117-10.486 59.422z" />
<glyph unicode="&#xe90c;" glyph-name="close1" d="M798.165 712.832c16.64-16.683 16.64-43.691 0-60.331l-512-512c-16.683-16.64-43.691-16.64-60.331 0s-16.683 43.691 0 60.331l512 512c16.64 16.683 43.691 16.683 60.331 0zM225.835 712.832c16.683 16.683 43.691 16.683 60.331 0l512-512c16.64-16.64 16.64-43.691 0-60.331s-43.691-16.64-60.331 0l-512 512c-16.683 16.683-16.683 43.691 0 60.331z" />
<glyph unicode="&#xe90d;" glyph-name="cosmetic1" d="M57.259 825.643l63.829-734.037v-63.317c0.043-44.16 35.84-79.957 80-80h160c44.16 0.043 79.957 35.84 80 80v63.317l63.829 734.037 15.701 62.72c1.195 4.779 0.128 9.856-2.901 13.739s-7.68 6.144-12.629 6.144h-448c-4.949 0-9.557-2.261-12.629-6.144s-4.096-8.96-2.901-13.739l15.701-62.72zM425.728 284.288h-289.28l-8.32 96h305.963l-8.32-96zM422.912 252.288l-12.544-144h-258.645l-12.544 144h283.733zM225.067 76.288h112v-16c0-8.832-7.168-16-16-16h-80c-8.832 0-16 7.168-16 16v16zM409.045 28.288c0-26.496-21.504-48-48-48h-160c-26.496 0-48 21.504-48 48v48h39.979v-16c0-26.496 21.504-48 48-48h80c26.496 0 48 21.504 48 48v16h40.021v-48zM436.821 412.288h-311.509l-34.773 400h381.099l-34.773-400zM484.565 876.288l-8.021-32h-390.997l-8.021 32h406.997zM649.088-51.712h224c26.496 0 48 21.504 48 48v608c-0.043 31.787-18.901 60.501-48 73.216v54.784c0 8.832-7.168 16-16 16h-48v64h160c6.485 0 12.288 3.883 14.763 9.856s1.109 12.843-3.456 17.451l-32 32c-2.432 2.432-5.632 4.011-9.045 4.523l-224 32c-0.768 0.085-1.536 0.171-2.261 0.171h-64c-8.832 0-16-7.168-16-16v-64c0-8.832 7.168-16 16-16h64v-64h-48c-8.832 0-16-7.168-16-16v-54.784c-29.099-12.715-47.957-41.429-48-73.216v-608c0-26.496 21.504-48 48-48zM889.088 524.288h-256v32h256v-32zM889.088 172.288h-256v320h256v-320zM873.088-19.712h-224c-8.832 0-16 7.168-16 16v144h256v-144c0-8.832-7.168-16-16-16zM665.088 876.288h46.891l217.6-31.104 0.896-0.896h-265.387v32zM745.088 812.246h32v-64h-32v64zM681.088 716.246h160v-32h-160v32zM681.088 652.288h160c26.496 0 48-21.504 48-48v-16h-256v16c0 26.496 21.504 48 48 48zM185.088 316.288h192c8.832 0 16 7.168 16 16s-7.168 16-16 16h-192c-8.832 0-16-7.168-16-16s7.168-16 16-16zM761.088 44.288h-64v48c0 8.832-7.168 16-16 16s-16-7.168-16-16v-64c0-8.832 7.168-16 16-16h80c8.832 0 16 7.168 16 16s-7.168 16-16 16zM841.088 44.288h-16c-8.832 0-16-7.168-16-16s7.168-16 16-16h16c8.832 0 16 7.168 16 16s-7.168 16-16 16zM356.011 141.099c8.405-2.773 17.451 1.749 20.224 10.112l16 48c2.816 8.405-1.749 17.451-10.155 20.267s-17.451-1.749-20.267-10.155l-16-48c-1.323-4.053-1.024-8.448 0.896-12.245s5.248-6.699 9.301-8.021z" />
<glyph unicode="&#xe90e;" glyph-name="facebook1" d="M458.965 821.035c48 48 113.109 74.965 181.035 74.965h128c23.552 0 42.667-19.115 42.667-42.667v-170.667c0-23.552-19.115-42.667-42.667-42.667h-128v-85.333h128c13.141 0 25.557-6.059 33.621-16.427s10.965-23.851 7.765-36.608l-42.667-170.667c-4.736-18.987-21.803-32.341-41.387-32.341h-85.333v-298.667c0-23.552-19.115-42.667-42.667-42.667h-170.667c-23.552 0-42.667 19.115-42.667 42.667v298.667h-85.333c-23.552 0-42.667 19.115-42.667 42.667v170.667c0 23.552 19.115 42.667 42.667 42.667h85.333v85.333c0 67.883 26.965 132.992 74.965 181.035zM640 810.667c-45.269 0-88.661-17.963-120.661-50.005s-50.005-75.435-50.005-120.661v-128c0-23.552-19.115-42.667-42.667-42.667h-85.333v-85.333h85.333c23.552 0 42.667-19.115 42.667-42.667v-298.667h85.333v298.667c0 23.552 19.115 42.667 42.667 42.667h94.677l21.333 85.333h-116.011c-23.552 0-42.667 19.115-42.667 42.667v128c0 22.613 9.003 44.331 25.003 60.331s37.717 25.003 60.331 25.003h85.333v85.333h-85.333z" />
<glyph unicode="&#xe90f;" glyph-name="instagram1" d="M298.667 810.667c-94.251 0-170.667-76.416-170.667-170.667v-426.667c0-94.251 76.416-170.667 170.667-170.667h426.667c94.251 0 170.667 76.416 170.667 170.667v426.667c0 94.251-76.416 170.667-170.667 170.667h-426.667zM42.667 640c0 141.397 114.603 256 256 256h426.667c141.397 0 256-114.603 256-256v-426.667c0-141.397-114.603-256-256-256h-426.667c-141.397 0-256 114.603-256 256v426.667zM532.608 555.136c-26.624 3.968-53.845-0.597-77.739-13.013s-43.264-32-55.381-56.064c-12.117-24.064-16.299-51.285-12.032-77.867s16.811-51.115 35.883-70.187c19.029-19.029 43.605-31.573 70.187-35.883s53.845-0.043 77.867 12.032c24.064 12.117 43.648 31.488 56.064 55.381s16.939 51.115 13.013 77.739c-4.011 27.179-16.683 52.309-36.096 71.723s-44.587 32.085-71.723 36.096zM415.573 617.856c39.808 20.651 85.163 28.245 129.536 21.675 45.269-6.699 87.168-27.819 119.552-60.16s53.461-74.283 60.16-119.552c6.571-44.373-0.981-89.728-21.675-129.536s-53.376-72.149-93.44-92.288c-40.064-20.181-85.504-27.179-129.792-20.053s-85.248 28.032-116.949 59.776c-31.744 31.744-52.651 72.661-59.776 116.949s-0.128 89.728 20.053 129.792c20.181 40.064 52.48 72.789 92.288 93.44zM704 661.334c0 23.552 19.115 42.667 42.667 42.667h0.427c23.552 0 42.667-19.115 42.667-42.667s-19.115-42.667-42.667-42.667h-0.427c-23.552 0-42.667 19.115-42.667 42.667z" />
<glyph unicode="&#xe910;" glyph-name="menu1" d="M85.333 426.667c0 23.552 19.115 42.667 42.667 42.667h768c23.552 0 42.667-19.115 42.667-42.667s-19.115-42.667-42.667-42.667h-768c-23.552 0-42.667 19.115-42.667 42.667zM85.333 682.667c0 23.552 19.115 42.667 42.667 42.667h768c23.552 0 42.667-19.115 42.667-42.667s-19.115-42.667-42.667-42.667h-768c-23.552 0-42.667 19.115-42.667 42.667zM85.333 170.667c0 23.552 19.115 42.667 42.667 42.667h768c23.552 0 42.667-19.115 42.667-42.667s-19.115-42.667-42.667-42.667h-768c-23.552 0-42.667 19.115-42.667 42.667z" />
<glyph unicode="&#xe911;" glyph-name="phone1" d="M704 298.667c-64-64-64-128-128-128s-128 64-192 128-128 128-128 192 64 64 128 128-128 256-192 256-192-192-192-192c0-128 131.499-387.499 256-512s384-256 512-256c0 0 192 128 192 192s-192 256-256 192z" />
<glyph unicode="&#xe912;" glyph-name="trim1" d="M512 362.795c19.413 0 36.907 11.691 44.331 29.611s3.328 38.571-10.411 52.309c-18.987 18.133-48.896 18.133-67.883 0-13.696-13.739-17.835-34.347-10.411-52.309s24.917-29.611 44.331-29.653zM500.693 422.102c6.229 6.229 16.384 6.229 22.613 0s6.229-16.384 0-22.613c-6.315-6.059-16.299-6.059-22.613 0-6.229 6.229-6.229 16.384 0 22.613zM704 586.795c4.224 0 8.32 1.707 11.307 4.693l144 144c6.059 6.272 5.973 16.256-0.213 22.443s-16.171 6.272-22.443 0.213l-144-144c-4.565-4.565-5.931-11.477-3.456-17.451s8.32-9.856 14.763-9.856zM624 506.795c4.224 0 8.32 1.707 11.307 4.693l32 32c6.059 6.272 5.973 16.256-0.213 22.443s-16.171 6.272-22.443 0.213l-32-32c-4.565-4.565-5.931-11.477-3.456-17.451s8.32-9.856 14.763-9.856zM208 138.795c-35.328 0-64-28.672-64-64s28.672-64 64-64 64 28.629 64 64c0 35.328-28.672 64-64 64zM208 42.795c-17.664 0-32 14.336-32 32s14.336 32 32 32 32-14.336 32-32c0-17.664-14.336-32-32-32zM816.597 10.795c35.328 0 64 28.629 64 64s-28.672 64-64 64c-35.371 0-64-28.672-64-64s28.629-64 64-64zM816.597 106.795c17.664 0 32-14.336 32-32s-14.336-32-32-32-32 14.336-32 32c0 17.664 14.336 32 32 32zM976 346.795c-35.328 0-64 28.629-64 64 0 8.832-7.168 16-16 16s-16-7.168-16-16c0-35.371-28.672-64-64-64-8.832 0-16-7.168-16-16s7.168-16 16-16c35.328 0 64-28.672 64-64 0-8.832 7.168-16 16-16s16 7.168 16 16c0 35.328 28.672 64 64 64 8.832 0 16 7.168 16 16s-7.168 16-16 16zM896 303.744c-7.125 10.752-16.299 19.925-27.051 27.051 10.709 7.125 19.925 16.299 27.051 27.051 7.125-10.709 16.299-19.925 27.051-27.051-10.709-7.125-19.925-16.299-27.051-27.051zM48 506.795c35.328 0 64-28.672 64-64 0-8.832 7.168-16 16-16s16 7.168 16 16c0 35.328 28.672 64 64 64 8.832 0 16 7.168 16 16s-7.168 16-16 16c-35.328 0-64 28.629-64 64 0 8.832-7.168 16-16 16s-16-7.168-16-16c0-35.371-28.672-64-64-64-8.832 0-16-7.168-16-16s7.168-16 16-16zM128 549.846c7.125-10.709 16.299-19.925 27.051-27.051-10.709-7.125-19.925-16.299-27.051-27.051-7.125 10.752-16.299 19.925-27.051 27.051 10.709 7.125 19.925 16.299 27.051 27.051zM419.2 356.608l-163.2-163.157c-15.232 6.229-31.531 9.387-48 9.387-70.699 0-128-57.301-128-128s57.301-128 128-128 128 57.301 128 128c0 7.637-0.725 15.275-2.133 22.827l178.432 174.421 178.432-174.421c-1.408-7.509-2.133-15.147-2.133-22.827 0-70.699 57.301-128 128-128s128 57.301 128 128c0 70.699-57.301 128-128 128-16.469 0.043-32.768-3.157-48-9.387l-162.987 162.987 302.891 348.416c70.485 88.107 1.536 193.835 0.811 194.859-2.603 3.883-6.784 6.443-11.435 6.997s-9.344-0.981-12.8-4.139l-372.608-346.112-372.651 346.112c-3.456 3.2-8.107 4.693-12.8 4.139s-8.832-3.115-11.435-6.997c-0.725-1.067-69.675-106.752 1.237-195.371l302.421-347.691zM305.152 114.262c-4.096-4.011-5.717-9.899-4.309-15.445 10.283-39.765-5.845-81.664-40.149-104.235s-79.147-20.864-111.616 4.309c-32.469 25.173-45.312 68.181-32 107.008s49.877 64.896 90.923 64.853c15.36 0 30.464-3.669 44.075-10.795 6.187-3.2 13.739-2.048 18.688 2.901l169.429 169.387c9.472-8.917 20.437-16.171 32.341-21.376l16.896-16.512-184.277-180.181zM772.565 160.043c13.568 7.125 28.715 10.795 44.032 10.795 41.387 0.256 78.336-25.899 91.861-65.024s0.64-82.517-32.085-107.861c-32.683-25.387-77.909-27.093-112.469-4.267s-50.688 65.109-40.149 105.131c1.451 5.547-0.213 11.435-4.309 15.445l-194.048 189.696c22.059 3.371 42.496 13.44 58.624 28.8l169.771-169.771c4.907-4.949 12.459-6.144 18.688-2.944zM891.819 865.067c13.483-28.672 32.939-88.704-7.851-139.776l-319.232-367.189c-28.971-29.227-76.16-29.397-105.387-0.427s-29.397 76.16-0.427 105.387l432.896 402.005zM132.992 865.195l355.925-330.581-52.224-48.512c-17.621-17.109-28.928-39.637-32-64l-263.296 302.677c-41.557 51.925-22.016 111.787-8.363 140.416z" />
<glyph unicode="&#xe913;" glyph-name="whatsapp1" d="M708.267 341.334c-8.533 4.267-64 29.867-72.533 34.133s-17.067 4.267-25.6-4.267c-8.533-8.533-25.6-34.133-34.133-42.667-4.267-8.533-12.8-8.533-21.333-4.267-29.867 12.8-59.733 29.867-85.333 51.2-21.333 21.333-42.667 46.933-59.733 72.533-4.267 8.533 0 17.067 4.267 21.333s8.533 12.8 17.067 17.067c4.267 4.267 8.533 12.8 8.533 17.067 4.267 4.267 4.267 12.8 0 17.067s-25.6 55.467-34.133 76.8c-4.267 29.867-12.8 29.867-21.333 29.867-4.267 0-12.8 0-21.333 0s-21.333-8.533-25.6-12.8c-25.6-25.6-38.4-55.467-38.4-89.6 4.267-38.4 17.067-76.8 42.667-110.933 46.933-68.267 106.667-123.733 179.2-157.867 21.333-8.533 38.4-17.067 59.733-21.333 21.333-8.533 42.667-8.533 68.267-4.267 29.867 4.267 55.467 25.6 72.533 51.2 8.533 17.067 8.533 34.133 4.267 51.2 0 0-8.533 4.267-17.067 8.533zM814.933 729.6c-166.4 166.4-435.2 166.4-601.6 0-136.533-136.533-162.133-345.6-68.267-512l-59.733-217.6 226.133 59.733c64-34.133 132.267-51.2 200.533-51.2 234.667 0 422.4 187.733 422.4 422.4 4.267 110.933-42.667 217.6-119.467 298.667zM699.733 132.267c-55.467-34.133-119.467-55.467-187.733-55.467-64 0-123.733 17.067-179.2 46.933l-12.8 8.533-132.267-34.133 34.133 128-8.533 12.8c-102.4 170.667-51.2 384 115.2 490.667s379.733 51.2 482.133-110.933c102.4-166.4 55.467-384-110.933-486.4z" />
<glyph unicode="&#xe914;" glyph-name="woman-hair1" d="M240 634.667c35.328 0 64 28.672 64 64s-28.672 64-64 64c-35.328 0-64-28.672-64-64s28.629-64 64-64zM240 730.667c17.664 0 32-14.336 32-32s-14.336-32-32-32c-17.664 0-32 14.336-32 32s14.336 32 32 32zM224 474.667c0 35.328-28.672 64-64 64s-64-28.672-64-64 28.629-64 64-64c35.328 0 64 28.672 64 64zM128 474.667c0 17.664 14.336 32 32 32s32-14.336 32-32c0-17.664-14.336-32-32-32s-32 14.336-32 32zM192 314.667c-35.328 0-64-28.672-64-64s28.629-64 64-64c35.328 0 64 28.672 64 64s-28.672 64-64 64zM192 218.667c-17.664 0-32 14.336-32 32s14.336 32 32 32c17.664 0 32-14.336 32-32s-14.336-32-32-32zM784 634.667c35.328 0 64 28.672 64 64s-28.672 64-64 64c-35.371 0-64-28.672-64-64s28.629-64 64-64zM784 730.667c17.664 0 32-14.336 32-32s-14.336-32-32-32c-17.664 0-32 14.336-32 32s14.336 32 32 32zM800 474.667c0-35.328 28.629-64 64-64s64 28.672 64 64-28.672 64-64 64c-35.371 0-64-28.672-64-64zM896 474.667c0-17.664-14.336-32-32-32s-32 14.336-32 32c0 17.664 14.336 32 32 32s32-14.336 32-32zM906.923 354.219c57.941 20.565 93.013 79.445 83.541 140.203l-122.325 108.032c0 0 58.539 125.013 13.867 178.347s-123.733 61.184-178.005 17.664v92.203c0 8.832-7.168 16-16 16h-352c-8.832 0-16-7.168-16-16v-92.459c-54.187 43.648-133.333 35.925-178.048-17.408s-38.528-132.608 13.909-178.347c-61.44-1.92-122.325-108.032-122.325-108.032s25.6-119.637 83.541-140.203c-46.72-33.792-65.109-94.635-44.8-148.608s74.155-87.723 131.541-82.389c57.387 5.333 104.149 48.427 114.133 105.216 18.133-25.301 40.491-47.275 66.048-65.024v-88.747h-144c-44.16-0.043-79.957-35.84-80-80v-32c0-8.832 7.168-16 16-16 262.443 0 409.557 0 672 0 8.832 0 16 7.168 16 16v32c-0.043 44.16-35.84 79.957-80 80h-144v88.747c25.557 17.749 47.915 39.723 66.048 65.024 9.856-56.917 56.661-100.181 114.176-105.557s111.531 28.416 131.797 82.517c20.267 54.101 1.792 115.072-45.099 148.821zM960 474.667c0-53.035-43.008-96-96-96s-96 42.965-96 96c0 52.992 42.965 96 96 96 52.992-0.043 95.957-43.008 96-96zM751.061 534.784c-5.12 16.128-11.477 31.829-18.987 46.976 15.061-6.699 31.275-10.411 47.744-10.88-11.691-10.197-21.461-22.4-28.8-36.096zM784 794.667c50.987 0.043 93.141-39.765 95.957-90.667s-34.645-95.147-85.291-100.736c-50.688-5.589-96.896 29.397-105.259 79.701 8.192 0.64 14.549 7.467 14.592 15.701v52.779c17.621 27.051 47.744 43.307 80 43.221zM672 714.667h-80v160h80v-160zM560 874.667v-160h-96v160h96zM272.939 534.784c-7.339 13.653-17.109 25.899-28.8 36.096 16.469 0.512 32.683 4.181 47.744 10.88-7.509-15.147-13.824-30.848-18.944-46.976zM352 874.667h80v-160h-80v160zM144 698.667c-0.085 42.411 27.691 79.787 68.309 91.989s84.395-3.755 107.691-39.211v-52.779c0.043-8.235 6.4-15.061 14.592-15.701-8.448-48.981-52.949-83.413-102.485-79.317s-87.765 45.312-88.107 95.019zM64 474.667c0 52.992 42.965 96 96 96s96-43.008 96-96c0-53.035-43.008-96-96-96-52.992 0.043-95.957 43.008-96 96zM192 154.667c-53.035 0-96 42.965-96 96s42.965 96 96 96c52.992 0 96-42.965 96-96-0.043-52.992-43.008-95.957-96-96zM234.923 371.072c8.448 6.101 16.085 13.184 22.827 21.12 1.152-11.861 2.859-23.552 5.12-35.072-8.704 5.76-18.091 10.453-27.947 13.952zM615.424 185.472c-4.608-2.944-7.424-8.021-7.424-13.525 0 0 0-104.491 0-113.323s16-16 16-16h160c26.496 0 48-21.504 48-48v-16c-249.941 0-640 0-640 0v16c0 26.496 21.461 48 48 48h160c8.832 0 16 7.168 16 16v113.365c0 5.461-2.816 10.581-7.424 13.525-74.368 47.189-120.576 139.563-120.576 241.109-1.621 82.005 31.019 160.981 90.027 217.984-5.461-35.115-8.832-70.485-10.027-105.984 0-8.832 7.168-16 16-16s16 7.168 16 16c2.176 44.459 6.955 88.704 14.421 132.608 7.125 4.224 14.507 8.064 22.059 11.392h8.832c-7.552-47.659-11.989-95.787-13.312-144 0-8.832 7.168-16 16-16s16 7.168 16 16c1.451 48.256 6.059 96.341 13.696 144h18.304v-144c0-8.832 7.168-16 16-16s16 7.168 16 16v144h18.304c7.637-47.659 12.203-95.744 13.696-144 0-8.832 16-16 16-16s16 7.168 16 16c-1.323 48.213-5.76 96.341-13.312 144h8.832c7.595-3.328 14.976-7.168 22.144-11.392 7.424-43.861 12.203-88.149 14.379-132.608 0-8.832 7.168-16 16-16s16 7.168 16 16c-1.237 35.499-4.608 70.869-10.069 105.984 59.008-56.96 91.648-135.936 90.069-217.984 0-101.504-46.208-193.92-120.576-241.109v-0.085zM766.251 392.192c6.741-7.936 14.421-15.019 22.827-21.12-9.856-3.456-19.243-8.149-27.947-13.952 2.261 11.477 3.968 23.168 5.12 35.072zM832 154.667c-53.035 0-96 42.965-96 96s42.965 96 96 96c52.992 0 96-42.965 96-96-0.043-52.992-43.008-95.957-96-96zM832 314.667c-35.371 0-64-28.672-64-64s28.629-64 64-64c35.328 0 64 28.672 64 64s-28.672 64-64 64zM832 218.667c-17.664 0-32 14.336-32 32s14.336 32 32 32c17.664 0 32-14.336 32-32s-14.336-32-32-32zM475.307 453.974c-6.229 6.229-16.384 6.229-22.613 0-11.52-12.501-27.733-19.627-44.715-19.627s-33.195 7.125-44.715 19.627c-6.272 6.059-16.256 5.931-22.443-0.256s-6.229-16.171-0.128-22.443c18.475-18.304 43.221-28.928 69.205-29.696 24.96 0.512 48.597 11.264 65.408 29.696 2.987 2.987 4.693 7.083 4.693 11.349s-1.707 8.32-4.693 11.349zM683.307 453.974c-6.229 6.229-16.384 6.229-22.613 0-11.52-12.501-27.733-19.627-44.715-19.627s-33.195 7.125-44.715 19.627c-6.272 6.059-16.256 5.931-22.443-0.256s-6.229-16.171-0.128-22.443c18.475-18.304 43.221-28.928 69.205-29.696 24.96 0.512 48.597 11.264 65.408 29.696 2.987 2.987 4.693 7.083 4.693 11.349s-1.707 8.32-4.693 11.349zM564.693 309.974c-50.816-50.773-99.925-5.376-105.387 0-6.272 6.059-16.256 5.931-22.443-0.213s-6.229-16.171-0.171-22.443c20.651-20.48 48.341-32.384 77.44-33.28 27.904 0.597 54.357 12.629 73.173 33.28 6.059 6.272 5.973 16.256-0.213 22.443s-16.171 6.272-22.443 0.213v0.043z" />
<glyph unicode="&#xe915;" glyph-name="youtube2" d="M512 810.667c0 0 0 0 0-42.667v-42.667h-3.2c-2.133 0-5.291 0-9.344-0.043-8.107-0.043-19.755-0.128-34.005-0.256-28.501-0.299-67.2-0.896-108.117-2.133-41.003-1.237-83.883-3.029-120.875-5.717-37.888-2.773-66.048-6.229-80.085-9.941-12.757-3.669-24.32-10.581-33.536-20.096-9.003-9.301-15.488-20.736-18.859-33.195-12.8-71.424-19.029-143.829-18.688-216.363v-0.469c-0.469-72.832 5.76-145.579 18.517-217.259 3.712-11.861 10.24-22.613 19.072-31.36 9.259-9.173 20.693-15.787 33.28-19.243 13.952-3.712 42.197-7.211 80.256-9.984 36.949-2.688 79.872-4.523 120.875-5.717 40.917-1.237 79.616-1.835 108.117-2.133 14.251-0.128 25.899-0.213 34.005-0.256 4.053 0 7.211-0.043 9.344-0.043h6.443c2.133 0 5.291 0 9.344 0.043 8.107 0.043 19.755 0.128 34.005 0.256 28.501 0.299 67.2 0.896 108.117 2.133 41.003 1.237 83.883 3.029 120.875 5.717 37.888 2.773 66.048 6.229 80.085 9.941 12.757 3.669 24.32 10.581 33.536 20.096 9.003 9.301 15.488 20.736 18.816 33.195 12.672 70.869 18.944 142.72 18.688 214.741v0.427c0.469 73.088-5.803 146.091-18.688 218.027-3.328 12.501-9.813 23.893-18.816 33.195-9.131 9.429-20.523 16.299-33.109 19.968-14.507 3.413-42.752 6.571-80.256 9.045-37.035 2.475-80 4.139-121.003 5.248-40.96 1.109-79.701 1.664-108.203 1.963-14.251 0.128-25.899 0.213-34.005 0.256l-12.587 0.043v42.667c0 42.667 0 42.667 0 42.667h3.413c2.176 0 5.419 0 9.557-0.043 8.235-0.043 20.053-0.085 34.475-0.256 28.843-0.299 68.096-0.853 109.696-1.963 41.557-1.109 85.76-2.816 124.373-5.419 37.547-2.517 73.131-6.016 95.573-11.477 0.512-0.128 0.981-0.256 1.493-0.384 27.307-7.723 52.096-22.528 71.851-42.88s33.792-45.611 40.704-73.131c0.213-0.939 0.427-1.835 0.597-2.773 13.995-77.568 20.779-156.245 20.309-235.051 0.256-77.611-6.528-155.136-20.309-231.509-0.171-0.939-0.384-1.877-0.597-2.773-6.912-27.52-20.949-52.779-40.704-73.131s-44.544-35.157-71.851-42.88l-0.597-0.171c-22.784-6.101-58.709-9.941-96.213-12.672-38.699-2.816-82.987-4.693-124.544-5.931-41.643-1.237-80.896-1.835-109.739-2.176-14.421-0.171-26.283-0.213-34.517-0.256-4.139 0-7.339-0.043-9.557-0.043h-6.784c-2.219 0-5.419 0-9.557 0.043-8.235 0.043-20.096 0.128-34.517 0.256-28.843 0.299-68.096 0.939-109.739 2.176-41.557 1.237-85.803 3.115-124.544 5.931-37.504 2.731-73.429 6.571-96.213 12.672l-0.256 0.043c-26.752 7.339-51.157 21.419-70.869 40.917s-34.048 43.776-41.643 70.443c-0.384 1.365-0.725 2.731-0.939 4.096-13.995 77.568-20.779 156.203-20.309 235.008-0.384 78.208 6.443 156.288 20.309 233.259 0.171 0.939 0.384 1.877 0.597 2.773 6.912 27.52 20.907 52.779 40.704 73.131s44.544 35.157 71.851 42.88l0.597 0.171c22.784 6.101 58.709 9.941 96.213 12.672 38.699 2.816 82.987 4.693 124.544 5.931 41.643 1.237 80.896 1.835 109.739 2.176 14.421 0.171 26.283 0.213 34.517 0.256 4.139 0 7.339 0.043 9.557 0.043h3.413zM394.539 613.718c13.141 7.637 29.355 7.723 42.539 0.213l245.333-139.52c13.355-7.595 21.589-21.76 21.589-37.077s-8.235-29.525-21.589-37.077l-245.333-139.52c-13.184-7.509-29.397-7.424-42.539 0.213s-21.205 21.675-21.205 36.864v279.040c0 15.189 8.064 29.227 21.205 36.864zM458.667 503.51v-132.352l116.352 66.176-116.352 66.176z" />
<glyph unicode="&#xe916;" glyph-name="map-pin" d="M725.333 512c0 117.821-95.514 213.333-213.333 213.333s-213.333-95.513-213.333-213.333c0-117.82 95.513-213.333 213.333-213.333s213.333 95.514 213.333 213.333zM640 512c0-70.694-57.306-128-128-128s-128 57.306-128 128c0 70.692 57.306 128 128 128s128-57.308 128-128zM512 853.334c-90.527 0-177.347-35.962-241.359-99.974s-99.974-150.832-99.974-241.359c0-132.186 86.005-260.45 180.307-359.991 46.279-48.849 92.704-88.841 127.605-116.629 12.988-10.347 24.333-18.961 33.421-25.677 9.088 6.716 20.433 15.33 33.421 25.677 34.901 27.789 81.327 67.78 127.603 116.629 94.306 99.541 180.309 227.806 180.309 359.991 0 90.527-35.964 177.347-99.972 241.359-64.013 64.013-150.835 99.974-241.361 99.974zM512-42.666c-23.667-35.503-23.68-35.494-23.689-35.486l-0.124 0.081-0.286 0.192-0.977 0.661c-0.832 0.563-2.014 1.374-3.529 2.423-3.034 2.099-7.386 5.158-12.877 9.122-10.978 7.927-26.513 19.499-45.098 34.295-37.098 29.542-86.674 72.218-136.396 124.702-97.698 103.121-203.693 252.194-203.693 418.675 0 113.159 44.952 221.683 124.968 301.699s188.54 124.968 301.699 124.968c113.161 0 221.683-44.952 301.7-124.968 80.013-80.016 124.966-188.54 124.966-301.699 0-166.481-105.997-315.554-203.691-418.675-49.724-52.484-99.298-95.159-136.397-124.702-18.586-14.797-34.121-26.368-45.099-34.295-5.491-3.964-9.843-7.023-12.877-9.122-1.515-1.050-2.697-1.86-3.529-2.423l-0.977-0.661-0.286-0.192-0.090-0.060c-0.013-0.009-0.055-0.038-23.723 35.465zM512-42.666l23.667-35.503c-14.332-9.553-33.024-9.536-47.356 0.017l23.689 35.486z" />
<glyph unicode="&#xe917;" glyph-name="arrow-up" d="M554.667 700.331l-200.832-200.832c-16.683-16.683-16.683-43.648 0-60.331s43.648-16.683 60.331 0l97.835 97.835v-323.669c0-23.552 19.072-42.667 42.667-42.667s42.667 19.115 42.667 42.667v323.669l97.835-97.835c8.32-8.32 19.243-12.501 30.165-12.501s21.845 4.181 30.165 12.501c16.683 16.683 16.683 43.648 0 60.331l-200.832 200.832z" />
<glyph unicode="&#xe918;" glyph-name="local_mall" d="M512 384.667q88 0 151 62t63 150h-86q0-52-38-90t-90-38-90 38-38 90h-86q0-88 63-150t151-62zM512 810.667q-52 0-90-38t-38-90h256q0 52-38 90t-90 38zM810 682.667q34 0 60-26t26-60v-512q0-34-26-59t-60-25h-596q-34 0-60 25t-26 59v512q0 34 26 60t60 26h84q0 88 63 151t151 63 151-63 63-151h84z" />
<glyph unicode="&#xe919;" glyph-name="basket, shop, cart, ecommerce, buy, purchase" d="M0 512v96h120l240.992 241.024c-1.6 4.768-2.976 9.632-2.976 14.976 0 26.528 21.472 48 48 48 26.496 0 48-21.472 48-48 0-26.496-21.504-48-48-48-3.552 0-6.688 1.312-9.984 2.016l-210.048-210.016h619.328l-208.8 210.528c-4.128-1.152-8.064-2.528-12.512-2.528-26.496 0-48 21.504-48 48 0 26.528 21.504 48 48 48s48-21.472 48-48c0-4.896-1.44-9.376-2.816-13.856l242.144-242.144h120.672v-96h-992zM795.808 35.136c-9.376-37.504-35.36-35.424-35.36-35.424l-531.040-1.024c-27.072 0-34.336 34.304-34.336 34.304l-140.384 446.56 882.368 0.832-141.248-445.248zM319.968 416h-32v-160h32v160zM319.968 224h-32v-160h32v160zM383.968 416h-31.968v-160h31.968v160zM383.968 224h-31.968v-160h31.968v160zM447.968 416h-32v-160h32v160zM447.968 224h-32v-160h32v160zM512 416h-32v-160h32v160zM512 224h-32v-160h32v160zM576 416h-32v-160h32v160zM576 224h-32v-160h32v160zM640 416h-32v-160h32v160zM640 224h-32v-160h32v160zM704 416h-32v-160h32v160zM704 224h-32v-160h32v160z" />
<glyph unicode="&#xe91a;" glyph-name="shopping-basket" horiz-adv-x="1170" d="M1097.143 512c40.571 0 73.143-32.571 73.143-73.143s-32.571-73.143-73.143-73.143h-8.571l-65.714-378.286c-6.286-34.857-36.571-60.571-72-60.571h-731.429c-35.429 0-65.714 25.714-72 60.571l-65.714 378.286h-8.571c-40.571 0-73.143 32.571-73.143 73.143s32.571 73.143 73.143 73.143h1024zM277.143 54.857c20 1.714 35.429 19.429 33.714 39.429l-18.286 237.714c-1.714 20-19.429 35.429-39.429 33.714s-35.429-19.429-33.714-39.429l18.286-237.714c1.714-18.857 17.714-33.714 36.571-33.714h2.857zM512 91.428v237.714c0 20-16.571 36.571-36.571 36.571s-36.571-16.571-36.571-36.571v-237.714c0-20 16.571-36.571 36.571-36.571s36.571 16.571 36.571 36.571zM731.429 91.428v237.714c0 20-16.571 36.571-36.571 36.571s-36.571-16.571-36.571-36.571v-237.714c0-20 16.571-36.571 36.571-36.571s36.571 16.571 36.571 36.571zM932.571 88.571l18.286 237.714c1.714 20-13.714 37.714-33.714 39.429s-37.714-13.714-39.429-33.714l-18.286-237.714c-1.714-20 13.714-37.714 33.714-39.429h2.857c18.857 0 34.857 14.857 36.571 33.714zM272 784l-53.143-235.429h-75.429l57.714 252c14.857 66.857 73.714 113.714 142.286 113.714h95.429c0 20 16.571 36.571 36.571 36.571h219.429c20 0 36.571-16.571 36.571-36.571h95.429c68.571 0 127.429-46.857 142.286-113.714l57.714-252h-75.429l-53.143 235.429c-8 33.714-37.143 57.143-71.429 57.143h-95.429c0-20-16.571-36.571-36.571-36.571h-219.429c-20 0-36.571 16.571-36.571 36.571h-95.429c-34.286 0-63.429-23.429-71.429-57.143z" />
</font>
</defs>
</svg>
